<svg baseProfile="full" height="100%" version="1.1" viewBox="25.0,5.0,1005.0,1020.0" width="100%" xmlns="http://www.w3.org/2000/svg" xmlns:ev="http://www.w3.org/2001/xml-events" xmlns:xlink="http://www.w3.org/1999/xlink"><defs /><g><line stroke="lightgrey" stroke-dasharray="2" x1="510.0" x2="509.0" y1="15.0" y2="15.0" /><line stroke="lightgrey" stroke-dasharray="2" x1="490.0" x2="509.0" y1="35.0" y2="35.0" /><line stroke="lightgrey" stroke-dasharray="2" x1="470.0" x2="509.0" y1="55.0" y2="55.0" /><line stroke="lightgrey" stroke-dasharray="2" x1="510.0" x2="509.0" y1="75.0" y2="75.0" /><line stroke="lightgrey" stroke-dasharray="2" x1="490.0" x2="489.0" y1="95.0" y2="95.0" /><line stroke="lightgrey" stroke-dasharray="2" x1="470.0" x2="489.0" y1="115.0" y2="115.0" /><line stroke="lightgrey" stroke-dasharray="2" x1="510.0" x2="509.0" y1="135.0" y2="135.0" /><line stroke="lightgrey" stroke-dasharray="2" x1="450.0" x2="509.0" y1="155.0" y2="155.0" /><line stroke="lightgrey" stroke-dasharray="2" x1="430.0" x2="509.0" y1="175.0" y2="175.0" /><line stroke="lightgrey" stroke-dasharray="2" x1="410.0" x2="509.0" y1="195.0" y2="195.0" /><line stroke="lightgrey" stroke-dasharray="2" x1="390.0" x2="509.0" y1="215.0" y2="215.0" /><line stroke="lightgrey" stroke-dasharray="2" x1="370.0" x2="509.0" y1="235.0" y2="235.0" /><line stroke="lightgrey" stroke-dasharray="2" x1="350.0" x2="509.0" y1="255.0" y2="255.0" /><line stroke="lightgrey" stroke-dasharray="2" x1="330.0" x2="509.0" y1="275.0" y2="275.0" /><line stroke="lightgrey" stroke-dasharray="2" x1="330.0" x2="509.0" y1="295.0" y2="295.0" /><line stroke="lightgrey" stroke-dasharray="2" x1="310.0" x2="509.0" y1="315.0" y2="315.0" /><line stroke="lightgrey" stroke-dasharray="2" x1="310.0" x2="509.0" y1="335.0" y2="335.0" /><line stroke="lightgrey" stroke-dasharray="2" x1="290.0" x2="509.0" y1="355.0" y2="355.0" /><line stroke="lightgrey" stroke-dasharray="2" x1="270.0" x2="509.0" y1="375.0" y2="375.0" /><line stroke="lightgrey" stroke-dasharray="2" x1="250.0" x2="509.0" y1="395.0" y2="395.0" /><line stroke="lightgrey" stroke-dasharray="2" x1="230.0" x2="509.0" y1="415.0" y2="415.0" /><line stroke="lightgrey" stroke-dasharray="2" x1="210.0" x2="509.0" y1="435.0" y2="435.0" /><line stroke="lightgrey" stroke-dasharray="2" x1="190.0" x2="509.0" y1="455.0" y2="455.0" /><line stroke="lightgrey" stroke-dasharray="2" x1="170.0" x2="509.0" y1="475.0" y2="475.0" /><line stroke="lightgrey" stroke-dasharray="2" x1="150.0" x2="509.0" y1="495.0" y2="495.0" /><line stroke="lightgrey" stroke-dasharray="2" x1="130.0" x2="509.0" y1="515.0" y2="515.0" /><line stroke="lightgrey" stroke-dasharray="2" x1="110.0" x2="509.0" y1="535.0" y2="535.0" /><line stroke="lightgrey" stroke-dasharray="2" x1="110.0" x2="509.0" y1="555.0" y2="555.0" /><line stroke="lightgrey" stroke-dasharray="2" x1="110.0" x2="509.0" y1="575.0" y2="575.0" /><line stroke="lightgrey" stroke-dasharray="2" x1="90.0" x2="509.0" y1="595.0" y2="595.0" /><line stroke="lightgrey" stroke-dasharray="2" x1="70.0" x2="509.0" y1="615.0" y2="615.0" /><line stroke="lightgrey" stroke-dasharray="2" x1="330.0" x2="509.0" y1="635.0" y2="635.0" /><line stroke="lightgrey" stroke-dasharray="2" x1="70.0" x2="509.0" y1="655.0" y2="655.0" /><line stroke="lightgrey" stroke-dasharray="2" x1="50.0" x2="509.0" y1="675.0" y2="675.0" /><line stroke="lightgrey" stroke-dasharray="2" x1="270.0" x2="509.0" y1="695.0" y2="695.0" /><line stroke="lightgrey" stroke-dasharray="2" x1="230.0" x2="509.0" y1="715.0" y2="715.0" /><line stroke="lightgrey" stroke-dasharray="2" x1="190.0" x2="509.0" y1="735.0" y2="735.0" /><line stroke="lightgrey" stroke-dasharray="2" x1="170.0" x2="509.0" y1="755.0" y2="755.0" /><line stroke="lightgrey" stroke-dasharray="2" x1="150.0" x2="509.0" y1="775.0" y2="775.0" /><line stroke="lightgrey" stroke-dasharray="2" x1="130.0" x2="509.0" y1="795.0" y2="795.0" /><line stroke="lightgrey" stroke-dasharray="2" x1="110.0" x2="509.0" y1="815.0" y2="815.0" /><line stroke="lightgrey" stroke-dasharray="2" x1="110.0" x2="509.0" y1="835.0" y2="835.0" /><line stroke="lightgrey" stroke-dasharray="2" x1="230.0" x2="509.0" y1="855.0" y2="855.0" /><line stroke="lightgrey" stroke-dasharray="2" x1="410.0" x2="509.0" y1="875.0" y2="875.0" /><line stroke="lightgrey" stroke-dasharray="2" x1="150.0" x2="509.0" y1="895.0" y2="895.0" /><line stroke="lightgrey" stroke-dasharray="2" x1="430.0" x2="509.0" y1="915.0" y2="915.0" /><line stroke="lightgrey" stroke-dasharray="2" x1="350.0" x2="509.0" y1="935.0" y2="935.0" /><line stroke="lightgrey" stroke-dasharray="2" x1="150.0" x2="509.0" y1="955.0" y2="955.0" /><line stroke="lightgrey" stroke-dasharray="2" x1="430.0" x2="509.0" y1="975.0" y2="975.0" /><line stroke="lightgrey" stroke-dasharray="2" x1="330.0" x2="509.0" y1="995.0" y2="995.0" /><line stroke="lightgrey" stroke-dasharray="2" x1="310.0" x2="509.0" y1="1015.0" y2="1015.0" /></g><g><line stroke="#c65353" stroke-width="2.0" x1="495.0" x2="495.0" y1="15.0" y2="75.0" /><line stroke="#53c653" stroke-width="2.0" x1="455.0" x2="455.0" y1="55.0" y2="80.0" /><line stroke="#c6c653" stroke-width="2.0" x1="475.0" x2="475.0" y1="35.0" y2="95.0" /><line stroke="#993333" stroke-width="2.0" x1="315.0" x2="315.0" y1="295.0" y2="635.0" /><line stroke="#333399" stroke-width="2.0" x1="255.0" x2="255.0" y1="375.0" y2="695.0" /><line stroke="#993333" stroke-width="2.0" x1="215.0" x2="215.0" y1="415.0" y2="715.0" /><line stroke="#c6c653" stroke-width="2.0" x1="175.0" x2="175.0" y1="455.0" y2="735.0" /><line stroke="#53c653" stroke-width="2.0" x1="155.0" x2="155.0" y1="475.0" y2="755.0" /><line stroke="#53c6c6" stroke-width="2.0" x1="135.0" x2="135.0" y1="495.0" y2="775.0" /><line stroke="#5353c6" stroke-width="2.0" x1="115.0" x2="115.0" y1="515.0" y2="795.0" /><line stroke="#d98c8c" stroke-width="2.0" x1="95.0" x2="95.0" y1="575.0" y2="815.0" /><line stroke="#8cd9d9" stroke-width="2.0" x1="375.0" x2="375.0" y1="215.0" y2="860.0" /><line stroke="#8cd98c" stroke-width="2.0" x1="395.0" x2="395.0" y1="195.0" y2="875.0" /><line stroke="#339999" stroke-width="2.0" x1="135.0" x2="135.0" y1="775.0" y2="895.0" /><line stroke="#d9d98c" stroke-width="2.0" x1="415.0" x2="415.0" y1="175.0" y2="915.0" /><line stroke="#d98cd9" stroke-width="2.0" x1="335.0" x2="335.0" y1="255.0" y2="935.0" /><line stroke="#53c653" stroke-width="2.0" x1="135.0" x2="135.0" y1="895.0" y2="955.0" /><line stroke="#53c6c6" stroke-width="2.0" x1="415.0" x2="415.0" y1="915.0" y2="975.0" /><line stroke="#c653c6" stroke-width="2.0" x1="135.0" x2="135.0" y1="955.0" y2="980.0" /><line stroke="#8cd9d9" stroke-width="2.0" x1="315.0" x2="315.0" y1="635.0" y2="995.0" /><line stroke="#d98cd9" stroke-width="2.0" x1="35.0" x2="35.0" y1="675.0" y2="1000.0" /><line stroke="#8c8cd9" stroke-width="2.0" x1="55.0" x2="55.0" y1="655.0" y2="1000.0" /><line stroke="#d9d98c" stroke-width="2.0" x1="75.0" x2="75.0" y1="595.0" y2="1000.0" /><line stroke="#993333" stroke-width="2.0" x1="95.0" x2="95.0" y1="835.0" y2="1000.0" /><line stroke="#333399" stroke-width="2.0" x1="115.0" x2="115.0" y1="795.0" y2="1000.0" /><line stroke="#339933" stroke-width="2.0" x1="155.0" x2="155.0" y1="755.0" y2="1000.0" /><line stroke="#999933" stroke-width="2.0" x1="175.0" x2="175.0" y1="735.0" y2="1000.0" /><line stroke="#c65353" stroke-width="2.0" x1="195.0" x2="195.0" y1="435.0" y2="1000.0" /><line stroke="#c65353" stroke-width="2.0" x1="215.0" x2="215.0" y1="855.0" y2="1000.0" /><line stroke="#993399" stroke-width="2.0" x1="235.0" x2="235.0" y1="395.0" y2="1000.0" /><line stroke="#d98c8c" stroke-width="2.0" x1="255.0" x2="255.0" y1="695.0" y2="1000.0" /><line stroke="#339999" stroke-width="2.0" x1="275.0" x2="275.0" y1="355.0" y2="1000.0" /><line stroke="#339933" stroke-width="2.0" x1="295.0" x2="295.0" y1="335.0" y2="1015.0" /><line stroke="#d98c8c" stroke-width="2.0" x1="315.0" x2="315.0" y1="995.0" y2="1000.0" /><line stroke="#8c8cd9" stroke-width="2.0" x1="355.0" x2="355.0" y1="235.0" y2="1000.0" /><line stroke="#c6c653" stroke-width="2.0" x1="395.0" x2="395.0" y1="875.0" y2="1000.0" /><line stroke="#d98c8c" stroke-width="2.0" x1="435.0" x2="435.0" y1="155.0" y2="1000.0" /><line stroke="#c653c6" stroke-width="2.0" x1="455.0" x2="455.0" y1="115.0" y2="1000.0" /><line stroke="#5353c6" stroke-width="2.0" x1="475.0" x2="475.0" y1="95.0" y2="1000.0" /><line stroke="#c65353" stroke-width="2.0" x1="495.0" x2="495.0" y1="135.0" y2="1000.0" /></g><g><line stroke="white" stroke-width="6.0" x1="470.0" x2="475.0" y1="95.0" y2="95.0" /><line stroke="white" stroke-width="6.0" x1="455.0" x2="460.0" y1="115.0" y2="115.0" /><line stroke="white" stroke-width="6.0" x1="470.0" x2="495.0" y1="135.0" y2="135.0" /><line stroke="white" stroke-width="6.0" x1="435.0" x2="440.0" y1="155.0" y2="155.0" /><line stroke="white" stroke-width="6.0" x1="415.0" x2="480.0" y1="175.0" y2="175.0" /><line stroke="white" stroke-width="6.0" x1="395.0" x2="400.0" y1="195.0" y2="195.0" /><line stroke="white" stroke-width="6.0" x1="375.0" x2="400.0" y1="215.0" y2="215.0" /><line stroke="white" stroke-width="6.0" x1="355.0" x2="480.0" y1="235.0" y2="235.0" /><line stroke="white" stroke-width="6.0" x1="335.0" x2="400.0" y1="255.0" y2="255.0" /><line stroke="white" stroke-width="6.0" x1="315.0" x2="400.0" y1="275.0" y2="275.0" /><line stroke="white" stroke-width="6.0" x1="315.0" x2="400.0" y1="295.0" y2="295.0" /><line stroke="white" stroke-width="6.0" x1="295.0" x2="400.0" y1="315.0" y2="315.0" /><line stroke="white" stroke-width="6.0" x1="295.0" x2="400.0" y1="335.0" y2="335.0" /><line stroke="white" stroke-width="6.0" x1="275.0" x2="400.0" y1="355.0" y2="355.0" /><line stroke="white" stroke-width="6.0" x1="255.0" x2="400.0" y1="375.0" y2="375.0" /><line stroke="white" stroke-width="6.0" x1="235.0" x2="400.0" y1="395.0" y2="395.0" /><line stroke="white" stroke-width="6.0" x1="215.0" x2="400.0" y1="415.0" y2="415.0" /><line stroke="white" stroke-width="6.0" x1="195.0" x2="400.0" y1="435.0" y2="435.0" /><line stroke="white" stroke-width="6.0" x1="175.0" x2="400.0" y1="455.0" y2="455.0" /><line stroke="white" stroke-width="6.0" x1="155.0" x2="400.0" y1="475.0" y2="475.0" /><line stroke="white" stroke-width="6.0" x1="135.0" x2="400.0" y1="495.0" y2="495.0" /><line stroke="white" stroke-width="6.0" x1="115.0" x2="400.0" y1="515.0" y2="515.0" /><line stroke="white" stroke-width="6.0" x1="95.0" x2="380.0" y1="535.0" y2="535.0" /><line stroke="white" stroke-width="6.0" x1="95.0" x2="380.0" y1="555.0" y2="555.0" /><line stroke="white" stroke-width="6.0" x1="95.0" x2="380.0" y1="575.0" y2="575.0" /><line stroke="white" stroke-width="6.0" x1="75.0" x2="320.0" y1="595.0" y2="595.0" /><line stroke="white" stroke-width="6.0" x1="55.0" x2="320.0" y1="615.0" y2="615.0" /><line stroke="white" stroke-width="6.0" x1="55.0" x2="240.0" y1="655.0" y2="655.0" /><line stroke="white" stroke-width="6.0" x1="35.0" x2="240.0" y1="675.0" y2="675.0" /><line stroke="white" stroke-width="6.0" x1="135.0" x2="400.0" y1="775.0" y2="775.0" /><line stroke="white" stroke-width="6.0" x1="115.0" x2="380.0" y1="795.0" y2="795.0" /><line stroke="white" stroke-width="6.0" x1="90.0" x2="95.0" y1="835.0" y2="835.0" /><line stroke="white" stroke-width="6.0" x1="90.0" x2="215.0" y1="855.0" y2="855.0" /><line stroke="white" stroke-width="6.0" x1="330.0" x2="395.0" y1="875.0" y2="875.0" /><line stroke="white" stroke-width="6.0" x1="135.0" x2="400.0" y1="895.0" y2="895.0" /><line stroke="white" stroke-width="6.0" x1="410.0" x2="415.0" y1="915.0" y2="915.0" /><line stroke="white" stroke-width="6.0" x1="335.0" x2="380.0" y1="935.0" y2="935.0" /><line stroke="white" stroke-width="6.0" x1="410.0" x2="415.0" y1="975.0" y2="975.0" /><line stroke="white" stroke-width="6.0" x1="150.0" x2="315.0" y1="995.0" y2="995.0" /><line stroke="white" stroke-width="6.0" x1="50.0" x2="295.0" y1="1015.0" y2="1015.0" /><line stroke="white" stroke-width="6.0" x1="295.0" x2="480.0" y1="1015.0" y2="1015.0" /></g><g><path d="M 455.0,80.0 a15.0,15.0 0 0,0 15.0,15.0" fill="none" stroke="#53c653" stroke-width="2.0" /><line stroke="#53c653" stroke-width="2.0" x1="470.0" x2="475.0" y1="95.0" y2="95.0" /><path d="M 475.0,100.0 a15.0,15.0 0 0,1 -15.0,15.0" fill="none" stroke="#5353c6" stroke-width="2.0" /><line stroke="#5353c6" stroke-width="2.0" x1="455.0" x2="460.0" y1="115.0" y2="115.0" /><path d="M 455.0,120.0 a15.0,15.0 0 0,0 15.0,15.0" fill="none" stroke="#c653c6" stroke-width="2.0" /><line stroke="#c653c6" stroke-width="2.0" x1="470.0" x2="495.0" y1="135.0" y2="135.0" /><path d="M 455.0,140.0 a15.0,15.0 0 0,1 -15.0,15.0" fill="none" stroke="#c653c6" stroke-width="2.0" /><line stroke="#c653c6" stroke-width="2.0" x1="435.0" x2="440.0" y1="155.0" y2="155.0" /><path d="M 495.0,160.0 a15.0,15.0 0 0,1 -15.0,15.0" fill="none" stroke="#c65353" stroke-width="2.0" /><line stroke="#c65353" stroke-width="2.0" x1="415.0" x2="480.0" y1="175.0" y2="175.0" /><path d="M 415.0,180.0 a15.0,15.0 0 0,1 -15.0,15.0" fill="none" stroke="#d9d98c" stroke-width="2.0" /><line stroke="#d9d98c" stroke-width="2.0" x1="395.0" x2="400.0" y1="195.0" y2="195.0" /><path d="M 415.0,200.0 a15.0,15.0 0 0,1 -15.0,15.0" fill="none" stroke="#d9d98c" stroke-width="2.0" /><line stroke="#d9d98c" stroke-width="2.0" x1="375.0" x2="400.0" y1="215.0" y2="215.0" /><path d="M 415.0,220.0 a15.0,15.0 0 0,1 -15.0,15.0" fill="none" stroke="#d9d98c" stroke-width="2.0" /><path d="M 495.0,220.0 a15.0,15.0 0 0,1 -15.0,15.0" fill="none" stroke="#c65353" stroke-width="2.0" /><line stroke="#c65353" stroke-width="2.0" x1="355.0" x2="480.0" y1="235.0" y2="235.0" /><path d="M 415.0,240.0 a15.0,15.0 0 0,1 -15.0,15.0" fill="none" stroke="#d9d98c" stroke-width="2.0" /><line stroke="#d9d98c" stroke-width="2.0" x1="335.0" x2="400.0" y1="255.0" y2="255.0" /><path d="M 415.0,260.0 a15.0,15.0 0 0,1 -15.0,15.0" fill="none" stroke="#d9d98c" stroke-width="2.0" /><line stroke="#d9d98c" stroke-width="2.0" x1="315.0" x2="400.0" y1="275.0" y2="275.0" /><path d="M 415.0,280.0 a15.0,15.0 0 0,1 -15.0,15.0" fill="none" stroke="#d9d98c" stroke-width="2.0" /><line stroke="#d9d98c" stroke-width="2.0" x1="315.0" x2="400.0" y1="295.0" y2="295.0" /><path d="M 415.0,300.0 a15.0,15.0 0 0,1 -15.0,15.0" fill="none" stroke="#d9d98c" stroke-width="2.0" /><line stroke="#d9d98c" stroke-width="2.0" x1="295.0" x2="400.0" y1="315.0" y2="315.0" /><path d="M 415.0,320.0 a15.0,15.0 0 0,1 -15.0,15.0" fill="none" stroke="#d9d98c" stroke-width="2.0" /><line stroke="#d9d98c" stroke-width="2.0" x1="295.0" x2="400.0" y1="335.0" y2="335.0" /><path d="M 415.0,340.0 a15.0,15.0 0 0,1 -15.0,15.0" fill="none" stroke="#d9d98c" stroke-width="2.0" /><line stroke="#d9d98c" stroke-width="2.0" x1="275.0" x2="400.0" y1="355.0" y2="355.0" /><path d="M 415.0,360.0 a15.0,15.0 0 0,1 -15.0,15.0" fill="none" stroke="#d9d98c" stroke-width="2.0" /><line stroke="#d9d98c" stroke-width="2.0" x1="255.0" x2="400.0" y1="375.0" y2="375.0" /><path d="M 415.0,380.0 a15.0,15.0 0 0,1 -15.0,15.0" fill="none" stroke="#d9d98c" stroke-width="2.0" /><line stroke="#d9d98c" stroke-width="2.0" x1="235.0" x2="400.0" y1="395.0" y2="395.0" /><path d="M 415.0,400.0 a15.0,15.0 0 0,1 -15.0,15.0" fill="none" stroke="#d9d98c" stroke-width="2.0" /><line stroke="#d9d98c" stroke-width="2.0" x1="215.0" x2="400.0" y1="415.0" y2="415.0" /><path d="M 415.0,420.0 a15.0,15.0 0 0,1 -15.0,15.0" fill="none" stroke="#d9d98c" stroke-width="2.0" /><line stroke="#d9d98c" stroke-width="2.0" x1="195.0" x2="400.0" y1="435.0" y2="435.0" /><path d="M 415.0,440.0 a15.0,15.0 0 0,1 -15.0,15.0" fill="none" stroke="#d9d98c" stroke-width="2.0" /><line stroke="#d9d98c" stroke-width="2.0" x1="175.0" x2="400.0" y1="455.0" y2="455.0" /><path d="M 415.0,460.0 a15.0,15.0 0 0,1 -15.0,15.0" fill="none" stroke="#d9d98c" stroke-width="2.0" /><line stroke="#d9d98c" stroke-width="2.0" x1="155.0" x2="400.0" y1="475.0" y2="475.0" /><path d="M 415.0,480.0 a15.0,15.0 0 0,1 -15.0,15.0" fill="none" stroke="#d9d98c" stroke-width="2.0" /><line stroke="#d9d98c" stroke-width="2.0" x1="135.0" x2="400.0" y1="495.0" y2="495.0" /><path d="M 375.0,500.0 a15.0,15.0 0 0,1 -15.0,15.0" fill="none" stroke="#8cd9d9" stroke-width="2.0" /><path d="M 395.0,500.0 a15.0,15.0 0 0,1 -15.0,15.0" fill="none" stroke="#8cd98c" stroke-width="2.0" /><path d="M 415.0,500.0 a15.0,15.0 0 0,1 -15.0,15.0" fill="none" stroke="#d9d98c" stroke-width="2.0" /><line stroke="#d9d98c" stroke-width="2.0" x1="115.0" x2="400.0" y1="515.0" y2="515.0" /><path d="M 375.0,520.0 a15.0,15.0 0 0,1 -15.0,15.0" fill="none" stroke="#8cd9d9" stroke-width="2.0" /><path d="M 395.0,520.0 a15.0,15.0 0 0,1 -15.0,15.0" fill="none" stroke="#8cd98c" stroke-width="2.0" /><line stroke="#8cd98c" stroke-width="2.0" x1="95.0" x2="380.0" y1="535.0" y2="535.0" /><path d="M 375.0,540.0 a15.0,15.0 0 0,1 -15.0,15.0" fill="none" stroke="#8cd9d9" stroke-width="2.0" /><path d="M 395.0,540.0 a15.0,15.0 0 0,1 -15.0,15.0" fill="none" stroke="#8cd98c" stroke-width="2.0" /><line stroke="#8cd98c" stroke-width="2.0" x1="95.0" x2="380.0" y1="555.0" y2="555.0" /><path d="M 375.0,560.0 a15.0,15.0 0 0,1 -15.0,15.0" fill="none" stroke="#8cd9d9" stroke-width="2.0" /><path d="M 395.0,560.0 a15.0,15.0 0 0,1 -15.0,15.0" fill="none" stroke="#8cd98c" stroke-width="2.0" /><line stroke="#8cd98c" stroke-width="2.0" x1="95.0" x2="380.0" y1="575.0" y2="575.0" /><path d="M 335.0,580.0 a15.0,15.0 0 0,1 -15.0,15.0" fill="none" stroke="#d98cd9" stroke-width="2.0" /><line stroke="#d98cd9" stroke-width="2.0" x1="75.0" x2="320.0" y1="595.0" y2="595.0" /><path d="M 335.0,600.0 a15.0,15.0 0 0,1 -15.0,15.0" fill="none" stroke="#d98cd9" stroke-width="2.0" /><line stroke="#d98cd9" stroke-width="2.0" x1="55.0" x2="320.0" y1="615.0" y2="615.0" /><path d="M 255.0,640.0 a15.0,15.0 0 0,1 -15.0,15.0" fill="none" stroke="#333399" stroke-width="2.0" /><line stroke="#333399" stroke-width="2.0" x1="55.0" x2="240.0" y1="655.0" y2="655.0" /><path d="M 255.0,660.0 a15.0,15.0 0 0,1 -15.0,15.0" fill="none" stroke="#333399" stroke-width="2.0" /><line stroke="#333399" stroke-width="2.0" x1="35.0" x2="240.0" y1="675.0" y2="675.0" /><path d="M 415.0,760.0 a15.0,15.0 0 0,1 -15.0,15.0" fill="none" stroke="#d9d98c" stroke-width="2.0" /><line stroke="#d9d98c" stroke-width="2.0" x1="135.0" x2="400.0" y1="775.0" y2="775.0" /><path d="M 375.0,780.0 a15.0,15.0 0 0,1 -15.0,15.0" fill="none" stroke="#8cd9d9" stroke-width="2.0" /><path d="M 395.0,780.0 a15.0,15.0 0 0,1 -15.0,15.0" fill="none" stroke="#8cd98c" stroke-width="2.0" /><line stroke="#8cd98c" stroke-width="2.0" x1="115.0" x2="380.0" y1="795.0" y2="795.0" /><path d="M 75.0,820.0 a15.0,15.0 0 0,0 15.0,15.0" fill="none" stroke="#d9d98c" stroke-width="2.0" /><line stroke="#d9d98c" stroke-width="2.0" x1="90.0" x2="95.0" y1="835.0" y2="835.0" /><path d="M 75.0,840.0 a15.0,15.0 0 0,0 15.0,15.0" fill="none" stroke="#d9d98c" stroke-width="2.0" /><line stroke="#d9d98c" stroke-width="2.0" x1="90.0" x2="215.0" y1="855.0" y2="855.0" /><path d="M 315.0,860.0 a15.0,15.0 0 0,0 15.0,15.0" fill="none" stroke="#8cd9d9" stroke-width="2.0" /><path d="M 375.0,860.0 a15.0,15.0 0 0,0 15.0,15.0" fill="none" stroke="#8cd9d9" stroke-width="2.0" /><line stroke="#8cd9d9" stroke-width="2.0" x1="330.0" x2="395.0" y1="875.0" y2="875.0" /><path d="M 415.0,880.0 a15.0,15.0 0 0,1 -15.0,15.0" fill="none" stroke="#d9d98c" stroke-width="2.0" /><line stroke="#d9d98c" stroke-width="2.0" x1="135.0" x2="400.0" y1="895.0" y2="895.0" /><path d="M 395.0,900.0 a15.0,15.0 0 0,0 15.0,15.0" fill="none" stroke="#c6c653" stroke-width="2.0" /><line stroke="#c6c653" stroke-width="2.0" x1="410.0" x2="415.0" y1="915.0" y2="915.0" /><path d="M 395.0,920.0 a15.0,15.0 0 0,1 -15.0,15.0" fill="none" stroke="#c6c653" stroke-width="2.0" /><line stroke="#c6c653" stroke-width="2.0" x1="335.0" x2="380.0" y1="935.0" y2="935.0" /><path d="M 395.0,960.0 a15.0,15.0 0 0,0 15.0,15.0" fill="none" stroke="#c6c653" stroke-width="2.0" /><line stroke="#c6c653" stroke-width="2.0" x1="410.0" x2="415.0" y1="975.0" y2="975.0" /><path d="M 135.0,980.0 a15.0,15.0 0 0,0 15.0,15.0" fill="none" stroke="#c653c6" stroke-width="2.0" /><line stroke="#c653c6" stroke-width="2.0" x1="150.0" x2="315.0" y1="995.0" y2="995.0" /><path d="M 35.0,1000.0 a15.0,15.0 0 0,0 15.0,15.0" fill="none" stroke="#d98cd9" stroke-width="2.0" /><path d="M 55.0,1000.0 a15.0,15.0 0 0,0 15.0,15.0" fill="none" stroke="#8c8cd9" stroke-width="2.0" /><path d="M 75.0,1000.0 a15.0,15.0 0 0,0 15.0,15.0" fill="none" stroke="#d9d98c" stroke-width="2.0" /><path d="M 95.0,1000.0 a15.0,15.0 0 0,0 15.0,15.0" fill="none" stroke="#993333" stroke-width="2.0" /><path d="M 115.0,1000.0 a15.0,15.0 0 0,0 15.0,15.0" fill="none" stroke="#333399" stroke-width="2.0" /><path d="M 155.0,1000.0 a15.0,15.0 0 0,0 15.0,15.0" fill="none" stroke="#339933" stroke-width="2.0" /><path d="M 175.0,1000.0 a15.0,15.0 0 0,0 15.0,15.0" fill="none" stroke="#999933" stroke-width="2.0" /><path d="M 195.0,1000.0 a15.0,15.0 0 0,0 15.0,15.0" fill="none" stroke="#c65353" stroke-width="2.0" /><path d="M 215.0,1000.0 a15.0,15.0 0 0,0 15.0,15.0" fill="none" stroke="#c65353" stroke-width="2.0" /><path d="M 235.0,1000.0 a15.0,15.0 0 0,0 15.0,15.0" fill="none" stroke="#993399" stroke-width="2.0" /><path d="M 255.0,1000.0 a15.0,15.0 0 0,0 15.0,15.0" fill="none" stroke="#d98c8c" stroke-width="2.0" /><path d="M 275.0,1000.0 a15.0,15.0 0 0,0 15.0,15.0" fill="none" stroke="#339999" stroke-width="2.0" /><line stroke="#d98cd9" stroke-width="2.0" x1="50.0" x2="295.0" y1="1015.0" y2="1015.0" /><path d="M 315.0,1000.0 a15.0,15.0 0 0,1 -15.0,15.0" fill="none" stroke="#d98c8c" stroke-width="2.0" /><path d="M 355.0,1000.0 a15.0,15.0 0 0,1 -15.0,15.0" fill="none" stroke="#8c8cd9" stroke-width="2.0" /><path d="M 395.0,1000.0 a15.0,15.0 0 0,1 -15.0,15.0" fill="none" stroke="#c6c653" stroke-width="2.0" /><path d="M 435.0,1000.0 a15.0,15.0 0 0,1 -15.0,15.0" fill="none" stroke="#d98c8c" stroke-width="2.0" /><path d="M 455.0,1000.0 a15.0,15.0 0 0,1 -15.0,15.0" fill="none" stroke="#c653c6" stroke-width="2.0" /><path d="M 475.0,1000.0 a15.0,15.0 0 0,1 -15.0,15.0" fill="none" stroke="#5353c6" stroke-width="2.0" /><path d="M 495.0,1000.0 a15.0,15.0 0 0,1 -15.0,15.0" fill="none" stroke="#c65353" stroke-width="2.0" /><line stroke="#c65353" stroke-width="2.0" x1="295.0" x2="480.0" y1="1015.0" y2="1015.0" /></g><g><circle cx="495.0" cy="15.0" fill="#c65353" id="Nfastqc" r="6.0" stroke="white" stroke-width="2.0" /><text dominant-baseline="middle" fill="currentColor" font-family="sans-serif" font-size="inherit" x="515.0" y="15.0">fastqc</text><circle cx="475.0" cy="35.0" fill="#c6c653" id="Nfastp" r="6.0" stroke="white" stroke-width="2.0" /><text dominant-baseline="middle" fill="currentColor" font-family="sans-serif" font-size="inherit" x="515.0" y="35.0">fastp</text><circle cx="455.0" cy="55.0" fill="#53c653" id="Nbuild_bowtie2_index" r="6.0" stroke="white" stroke-width="2.0" /><text dominant-baseline="middle" fill="currentColor" font-family="sans-serif" font-size="inherit" x="515.0" y="55.0">build_bowtie2_index</text><circle cx="495.0" cy="75.0" fill="#53c6c6" id="Nmultiqc_fastqc" r="6.0" stroke="white" stroke-width="2.0" /><text dominant-baseline="middle" fill="currentColor" font-family="sans-serif" font-size="inherit" x="515.0" y="75.0">multiqc_fastqc</text><circle cx="475.0" cy="95.0" fill="#5353c6" id="Nbowtie2_align" r="6.0" stroke="white" stroke-width="2.0" /><text dominant-baseline="middle" fill="currentColor" font-family="sans-serif" font-size="inherit" x="495.0" y="95.0">bowtie2_align</text><circle cx="455.0" cy="115.0" fill="#c653c6" id="Nsamtools_sort_filter_index" r="6.0" stroke="white" stroke-width="2.0" /><text dominant-baseline="middle" fill="currentColor" font-family="sans-serif" font-size="inherit" x="495.0" y="115.0">samtools_sort_filter_index</text><circle cx="495.0" cy="135.0" fill="#c65353" id="Nremove_duplicates" r="6.0" stroke="white" stroke-width="2.0" /><text dominant-baseline="middle" fill="currentColor" font-family="sans-serif" font-size="inherit" x="515.0" y="135.0">remove_duplicates</text><circle cx="435.0" cy="155.0" fill="#d98c8c" id="Ncalculate_library_complexity" r="6.0" stroke="white" stroke-width="2.0" /><text dominant-baseline="middle" fill="currentColor" font-family="sans-serif" font-size="inherit" x="515.0" y="155.0">calculate_library_complexity</text><circle cx="415.0" cy="175.0" fill="#d9d98c" id="Nfilter_blacklist" r="6.0" stroke="white" stroke-width="2.0" /><text dominant-baseline="middle" fill="currentColor" font-family="sans-serif" font-size="inherit" x="515.0" y="175.0">filter_blacklist</text><circle cx="395.0" cy="195.0" fill="#8cd98c" id="Ncall_peaks_narrow" r="6.0" stroke="white" stroke-width="2.0" /><text dominant-baseline="middle" fill="currentColor" font-family="sans-serif" font-size="inherit" x="515.0" y="195.0">call_peaks_narrow</text><circle cx="375.0" cy="215.0" fill="#8cd9d9" id="Ncall_peaks_broad" r="6.0" stroke="white" stroke-width="2.0" /><text dominant-baseline="middle" fill="currentColor" font-family="sans-serif" font-size="inherit" x="515.0" y="215.0">call_peaks_broad</text><circle cx="355.0" cy="235.0" fill="#8c8cd9" id="Nblacklist_stats" r="6.0" stroke="white" stroke-width="2.0" /><text dominant-baseline="middle" fill="currentColor" font-family="sans-serif" font-size="inherit" x="515.0" y="235.0">blacklist_stats</text><circle cx="335.0" cy="255.0" fill="#d98cd9" id="Ncreate_bigwig" r="6.0" stroke="white" stroke-width="2.0" /><text dominant-baseline="middle" fill="currentColor" font-family="sans-serif" font-size="inherit" x="515.0" y="255.0">create_bigwig</text><circle cx="315.0" cy="275.0" fill="#d98c8c" id="Ncreate_ratio_bigwig" r="6.0" stroke="white" stroke-width="2.0" /><text dominant-baseline="middle" fill="currentColor" font-family="sans-serif" font-size="inherit" x="515.0" y="275.0">create_ratio_bigwig</text><circle cx="315.0" cy="295.0" fill="#993333" id="Nrelaxed_peaks_broad" r="6.0" stroke="white" stroke-width="2.0" /><text dominant-baseline="middle" fill="currentColor" font-family="sans-serif" font-size="inherit" x="515.0" y="295.0">relaxed_peaks_broad</text><circle cx="295.0" cy="315.0" fill="#999933" id="Ndeeptools_bedgraph" r="6.0" stroke="white" stroke-width="2.0" /><text dominant-baseline="middle" fill="currentColor" font-family="sans-serif" font-size="inherit" x="515.0" y="315.0">deeptools_bedgraph</text><circle cx="295.0" cy="335.0" fill="#339933" id="Ndeeptools_fragmentsize" r="6.0" stroke="white" stroke-width="2.0" /><text dominant-baseline="middle" fill="currentColor" font-family="sans-serif" font-size="inherit" x="515.0" y="335.0">deeptools_fragmentsize</text><circle cx="275.0" cy="355.0" fill="#339999" id="Ndeeptools_plotfingerprint" r="6.0" stroke="white" stroke-width="2.0" /><text dominant-baseline="middle" fill="currentColor" font-family="sans-serif" font-size="inherit" x="515.0" y="355.0">deeptools_plotfingerprint</text><circle cx="255.0" cy="375.0" fill="#333399" id="Ndeeptools_cor_multibam" r="6.0" stroke="white" stroke-width="2.0" /><text dominant-baseline="middle" fill="currentColor" font-family="sans-serif" font-size="inherit" x="515.0" y="375.0">deeptools_cor_multibam</text><circle cx="235.0" cy="395.0" fill="#993399" id="Ndeeptools_gc_bias" r="6.0" stroke="white" stroke-width="2.0" /><text dominant-baseline="middle" fill="currentColor" font-family="sans-serif" font-size="inherit" x="515.0" y="395.0">deeptools_gc_bias</text><circle cx="215.0" cy="415.0" fill="#993333" id="Nqc_relaxed_peaks_broad" r="6.0" stroke="white" stroke-width="2.0" /><text dominant-baseline="middle" fill="currentColor" font-family="sans-serif" font-size="inherit" x="515.0" y="415.0">qc_relaxed_peaks_broad</text><circle cx="195.0" cy="435.0" fill="#c65353" id="Nreads_in_annotations" r="6.0" stroke="white" stroke-width="2.0" /><text dominant-baseline="middle" fill="currentColor" font-family="sans-serif" font-size="inherit" x="515.0" y="435.0">reads_in_annotations</text><circle cx="175.0" cy="455.0" fill="#c6c653" id="Ncross_correlation" r="6.0" stroke="white" stroke-width="2.0" /><text dominant-baseline="middle" fill="currentColor" font-family="sans-serif" font-size="inherit" x="515.0" y="455.0">cross_correlation</text><circle cx="155.0" cy="475.0" fill="#53c653" id="Nfingerprint_jsd" r="6.0" stroke="white" stroke-width="2.0" /><text dominant-baseline="middle" fill="currentColor" font-family="sans-serif" font-size="inherit" x="515.0" y="475.0">fingerprint_jsd</text><circle cx="135.0" cy="495.0" fill="#53c6c6" id="Nrepro_pool" r="6.0" stroke="white" stroke-width="2.0" /><text dominant-baseline="middle" fill="currentColor" font-family="sans-serif" font-size="inherit" x="515.0" y="495.0">repro_pool</text><circle cx="115.0" cy="515.0" fill="#5353c6" id="NFRiP" r="6.0" stroke="white" stroke-width="2.0" /><text dominant-baseline="middle" fill="currentColor" font-family="sans-serif" font-size="inherit" x="515.0" y="515.0">FRiP</text><circle cx="95.0" cy="535.0" fill="#c653c6" id="Nannotate_peaks" r="6.0" stroke="white" stroke-width="2.0" /><text dominant-baseline="middle" fill="currentColor" font-family="sans-serif" font-size="inherit" x="515.0" y="535.0">annotate_peaks</text><circle cx="95.0" cy="555.0" fill="#c65353" id="Nmotif_enrichment" r="6.0" stroke="white" stroke-width="2.0" /><text dominant-baseline="middle" fill="currentColor" font-family="sans-serif" font-size="inherit" x="515.0" y="555.0">motif_enrichment</text><circle cx="95.0" cy="575.0" fill="#d98c8c" id="Npeak_jaccard" r="6.0" stroke="white" stroke-width="2.0" /><text dominant-baseline="middle" fill="currentColor" font-family="sans-serif" font-size="inherit" x="515.0" y="575.0">peak_jaccard</text><circle cx="75.0" cy="595.0" fill="#d9d98c" id="Ndeeptools_tss" r="6.0" stroke="white" stroke-width="2.0" /><text dominant-baseline="middle" fill="currentColor" font-family="sans-serif" font-size="inherit" x="515.0" y="595.0">deeptools_tss</text><circle cx="55.0" cy="615.0" fill="#8cd98c" id="Ndeeptools_metagene" r="6.0" stroke="white" stroke-width="2.0" /><text dominant-baseline="middle" fill="currentColor" font-family="sans-serif" font-size="inherit" x="515.0" y="615.0">deeptools_metagene</text><circle cx="315.0" cy="635.0" fill="#8cd9d9" id="Nreproducible_idr_broad" r="6.0" stroke="white" stroke-width="2.0" /><text dominant-baseline="middle" fill="currentColor" font-family="sans-serif" font-size="inherit" x="515.0" y="635.0">reproducible_idr_broad</text><circle cx="55.0" cy="655.0" fill="#8c8cd9" id="Ndeeptools_cor_scatterplot" r="6.0" stroke="white" stroke-width="2.0" /><text dominant-baseline="middle" fill="currentColor" font-family="sans-serif" font-size="inherit" x="515.0" y="655.0">deeptools_cor_scatterplot</text><circle cx="35.0" cy="675.0" fill="#d98cd9" id="Ndeeptools_cor_heatmap" r="6.0" stroke="white" stroke-width="2.0" /><text dominant-baseline="middle" fill="currentColor" font-family="sans-serif" font-size="inherit" x="515.0" y="675.0">deeptools_cor_heatmap</text><circle cx="255.0" cy="695.0" fill="#d98c8c" id="Ndeeptools_cor_pca" r="6.0" stroke="white" stroke-width="2.0" /><text dominant-baseline="middle" fill="currentColor" font-family="sans-serif" font-size="inherit" x="515.0" y="695.0">deeptools_cor_pca</text><circle cx="215.0" cy="715.0" fill="#993333" id="Nidr" r="6.0" stroke="white" stroke-width="2.0" /><text dominant-baseline="middle" fill="currentColor" font-family="sans-serif" font-size="inherit" x="515.0" y="715.0">idr</text><circle cx="175.0" cy="735.0" fill="#999933" id="Ncross_correlation_summary" r="6.0" stroke="white" stroke-width="2.0" /><text dominant-baseline="middle" fill="currentColor" font-family="sans-serif" font-size="inherit" x="515.0" y="735.0">cross_correlation_summary</text><circle cx="155.0" cy="755.0" fill="#339933" id="Nfingerprint_jsd_summary" r="6.0" stroke="white" stroke-width="2.0" /><text dominant-baseline="middle" fill="currentColor" font-family="sans-serif" font-size="inherit" x="515.0" y="755.0">fingerprint_jsd_summary</text><circle cx="135.0" cy="775.0" fill="#339999" id="Nrepro_split" r="6.0" stroke="white" stroke-width="2.0" /><text dominant-baseline="middle" fill="currentColor" font-family="sans-serif" font-size="inherit" x="515.0" y="775.0">repro_split</text><circle cx="115.0" cy="795.0" fill="#333399" id="Npeak_summary" r="6.0" stroke="white" stroke-width="2.0" /><text dominant-baseline="middle" fill="currentColor" font-family="sans-serif" font-size="inherit" x="515.0" y="795.0">peak_summary</text><circle cx="95.0" cy="815.0" fill="#993399" id="Npeak_overlap_matrix" r="6.0" stroke="white" stroke-width="2.0" /><text dominant-baseline="middle" fill="currentColor" font-family="sans-serif" font-size="inherit" x="515.0" y="815.0">peak_overlap_matrix</text><circle cx="95.0" cy="835.0" fill="#993333" id="Ndeeptools_tss_heatmap_downsample" r="6.0" stroke="white" stroke-width="2.0" /><text dominant-baseline="middle" fill="currentColor" font-family="sans-serif" font-size="inherit" x="515.0" y="835.0">deeptools_tss_heatmap_downsample</text><circle cx="215.0" cy="855.0" fill="#c65353" id="Ntss_enrichment_score" r="6.0" stroke="white" stroke-width="2.0" /><text dominant-baseline="middle" fill="currentColor" font-family="sans-serif" font-size="inherit" x="515.0" y="855.0">tss_enrichment_score</text><circle cx="395.0" cy="875.0" fill="#c6c653" id="Nconsensus_peaks" r="6.0" stroke="white" stroke-width="2.0" /><text dominant-baseline="middle" fill="currentColor" font-family="sans-serif" font-size="inherit" x="515.0" y="875.0">consensus_peaks</text><circle cx="135.0" cy="895.0" fill="#53c653" id="Nrepro_relaxed_broad" r="6.0" stroke="white" stroke-width="2.0" /><text dominant-baseline="middle" fill="currentColor" font-family="sans-serif" font-size="inherit" x="515.0" y="895.0">repro_relaxed_broad</text><circle cx="415.0" cy="915.0" fill="#53c6c6" id="Ncount_fragments_consensus" r="6.0" stroke="white" stroke-width="2.0" /><text dominant-baseline="middle" fill="currentColor" font-family="sans-serif" font-size="inherit" x="515.0" y="915.0">count_fragments_consensus</text><circle cx="335.0" cy="935.0" fill="#5353c6" id="Ndeeptools_peak_heatmap" r="6.0" stroke="white" stroke-width="2.0" /><text dominant-baseline="middle" fill="currentColor" font-family="sans-serif" font-size="inherit" x="515.0" y="935.0">deeptools_peak_heatmap</text><circle cx="135.0" cy="955.0" fill="#c653c6" id="Nrepro_idr_broad" r="6.0" stroke="white" stroke-width="2.0" /><text dominant-baseline="middle" fill="currentColor" font-family="sans-serif" font-size="inherit" x="515.0" y="955.0">repro_idr_broad</text><circle cx="415.0" cy="975.0" fill="#c65353" id="Ndifferential_binding" r="6.0" stroke="white" stroke-width="2.0" /><text dominant-baseline="middle" fill="currentColor" font-family="sans-serif" font-size="inherit" x="515.0" y="975.0">differential_binding</text><circle cx="315.0" cy="995.0" fill="#d98c8c" id="Nidr_reproducibility_summary" r="6.0" stroke="white" stroke-width="2.0" /><text dominant-baseline="middle" fill="currentColor" font-family="sans-serif" font-size="inherit" x="515.0" y="995.0">idr_reproducibility_summary</text><circle cx="295.0" cy="1015.0" fill="#d9d98c" id="Nqc_report" r="6.0" stroke="white" stroke-width="2.0" /><text dominant-baseline="middle" fill="currentColor" font-family="sans-serif" font-size="inherit" x="515.0" y="1015.0">qc_report</text></g></svg>